<svg width="264" height="398" viewBox="0 0 264 398" fill="none" xmlns="http://www.w3.org/2000/svg">
<g clip-path="url(#clip0_12_51)">
<path d="M204.84 53.16C204.17 52.83 203.42 52.63 202.84 52.15C187.84 39.66 161.8 37.73 160.84 37.66C147.84 36.66 135.47 39.31 124.84 47.66C110.84 58.66 118.84 106.66 126.09 116.06C128.6 119.32 130.8 145.9 130.84 155.66C130.89 168.23 126.32 177.21 120.84 187.66C116.13 196.64 108.89 202.61 99.89 206.27C91.28 209.78 82.72 212.82 73.36 213.82C68.51 214.34 64.69 213.7 61.29 210.22C60.8 209.72 60.04 209.55 59.83 208.67C57.11 197.07 47.56 192.17 38.29 187.27C33.64 184.82 28.67 182.81 23.35 181.87C18.91 181.08 15.17 183.61 14.31 188.16C13.44 192.74 14.26 197.03 16.13 201.15C17.53 204.24 18.25 207.32 17.35 210.67" stroke="black" stroke-width="5" stroke-miterlimit="10"/>
<path d="M26.34 269.66C21.18 276.03 21.56 284.2 27.91 290.09C32.21 294.08 34.93 298.76 36.88 304.15C38.94 309.83 43.42 313.86 47.39 318.11C53.76 324.94 61.52 330.01 69.86 334.11C73.39 335.84 76.56 338.08 79.8 340.21C86.07 344.33 93.09 345.4 100.26 347.01C107.98 348.74 115.91 346.85 123.34 349.66" stroke="black" stroke-width="5" stroke-miterlimit="10"/>
<path d="M59.34 209.16C54.86 211.1 49.92 209.4 45.3 211.31C35.88 215.22 32.46 221.8 36.49 231.09C37.93 234.41 38.72 237.81 39.84 241.16" stroke="black" stroke-width="5" stroke-miterlimit="10"/>
<path d="M162.84 26.66C151.38 24.8 140.69 27.77 130.38 32.25C126.12 34.1 107.34 44.66 97.84 53.66" stroke="black" stroke-width="5" stroke-miterlimit="10"/>
<path d="M98.84 63.66C96.84 55.66 96.84 45.66 95.84 37.66C95.49 36.28 96.01 33.85 96.84 32.66C102.78 24.13 109.9 16.94 119.23 11.48C121.76 9.99998 125.56 7.58998 127.84 6.65998C129 6.17998 127.84 18.66 128.84 18.66C129.84 18.66 128.84 6.65998 128.84 6.65998C128.7 4.99998 144.19 1.62998 151.34 1.51998C162.29 1.34998 172.83 2.71998 182.82 7.20998C190.61 10.71 198.68 13.84 204.84 20.16C209.75 25.2 209.84 32.66 207.84 40.66" stroke="black" stroke-width="5" stroke-miterlimit="10"/>
<path d="M104.84 348.66C104.84 349.66 112.06 365.21 114.37 370.15C116.83 375.41 117.84 380.53 115.42 386.2C113.17 391.46 115.18 394.61 120.85 395.13C130.99 396.06 141.16 396.44 151.35 396.24C180.85 393.66 143.85 388.66 135.85 379.66C132.76 375.48 122.29 351.77 123.96 350.29C125.65 348.79 127.74 346.43 130.32 347.26C136.05 349.11 141.99 349.34 147.85 350.18C153.51 350.99 159.18 350.6 164.85 350.65C170.98 350.71 192.39 345.58 194.22 343.55C200.11 336.99 207.92 334.13 215.91 332.41C221.83 331.13 226.77 328.35 231.79 325.56C234.32 324.15 236.86 322.67 239.33 321.14C248.37 315.54 255.43 308.4 258.42 297.7C261.28 287.49 261.88 277.21 261.46 266.68C261.02 255.61 257.19 245.69 250.69 237.32C239.65 223.09 225.07 212.3 211.89 200.16C206.42 195.12 201.04 190.11 196.62 183.86C192.26 177.7 191.26 170.34 187.43 164.15C186.79 163.11 186.96 161.53 186.87 160.19C185.86 145.32 188.47 131.03 193.86 117.19" stroke="black" stroke-width="5" stroke-miterlimit="10"/>
<path d="M171.84 348.66C173.84 356.66 185.89 378.15 186.84 387.66C187.15 390.75 183.91 395.42 186.84 395.66C198.84 396.66 199.84 394.66 203.84 394.66C211.9 394.66 227.84 395.66 227.84 395.66C234.84 392.66 213.47 386.24 210.26 384.29C198.75 377.33 194.84 366.66 193.84 343.66" stroke="black" stroke-width="5" stroke-miterlimit="10"/>
<path d="M19.34 240.16C12.76 236.09 8.18001 236.09 3.84001 240.16C1.21001 242.63 1.01001 246.4 3.34001 249.16C8.11001 254.82 23.88 262.16 24.29 263.67C26.09 270.29 32.93 271.73 36.84 276.16" stroke="black" stroke-width="5" stroke-miterlimit="10"/>
<path d="M124.84 47.66C89.84 62.66 89.09 77.38 75.84 85.66C67.84 90.66 88.35 100.13 88.35 100.13C98.47 105.1 108.75 109.36 120.34 105.16" stroke="black" stroke-width="5" stroke-miterlimit="10"/>
<path d="M161.34 37.66C160.84 37.66 163.98 14.87 172.84 16.66C175.6 17.22 193.93 21.36 194.84 25.66C195.21 27.4 193.84 39.66 191.84 45.66" stroke="black" stroke-width="5" stroke-miterlimit="10"/>
<path d="M47.34 246.66C44.8 244.24 42.53 241.14 38.35 242.18C33.08 243.49 26.53 242.9 24.89 250.17C24 254.1 25.52 258.2 24.35 262.16" stroke="black" stroke-width="5" stroke-miterlimit="10"/>
<path d="M23.84 217.41C22.68 217.02 21.87 216.28 21.33 215.16C18.86 210.03 13.58 210.04 9.33002 209.89C3.25002 209.68 -0.76997 219.95 2.89003 225.62C5.17003 229.16 7.73003 232.5 8.84003 236.65" stroke="black" stroke-width="5" stroke-miterlimit="10"/>
<path d="M208.84 69.66C201.84 76.66 179.84 78.66 174.84 76.66C166.08 73.16 171.84 75.66 172.84 89.66C173.63 100.68 158.78 101.29 163.84 104.66C169.84 108.66 184.84 114.66 196.84 116.66C196.84 116.66 235.84 118.66 252.3 112.56C255.05 111.54 257.77 109.66 258.34 106.16C258.99 102.16 255.85 100.87 253.33 99.18C252.41 98.56 251.34 98.16 250.34 97.66C242.23 93.64 234.42 89.15 226.73 84.34C221.65 81.16 218.69 75.72 213.32 73.2C206.6 70.04 205.96 63.65 205.01 57.63C204.71 55.71 205.52 53.38 207.71 51.51C211.44 48.3 211.42 45.24 209.84 43.66C204.84 38.66 199.84 36.66 193.84 34.66" stroke="black" stroke-width="5" stroke-miterlimit="10"/>
<path d="M140.02 75.52C141.6 75.52 142.43 73.48 142.66 71.73C143.13 68.16 141.64 63.93 138.32 63.05C138.17 63.01 138.03 62.99 137.91 62.99C136.74 62.99 136.12 64.9 135.96 65.49C135.07 68.7 135.82 73.5 138.12 74.88C138.83 75.3 139.47 75.52 140.02 75.52Z" fill="black"/>
<path d="M138.02 64.52C137.65 64.95 137.01 66.49 137.1 68.81C137.18 71.04 137.92 73 138.89 73.59C139.55 73.99 139.92 74.02 140.02 74.02C140.36 74.02 140.97 73.08 141.17 71.54C141.54 68.71 140.46 65.27 138.02 64.52ZM137.91 61.48C138.17 61.48 138.43 61.52 138.71 61.59C146.04 63.55 145.67 77.01 140.02 77.01C139.23 77.01 138.34 76.75 137.35 76.15C132.6 73.31 133.26 61.48 137.91 61.48Z" fill="black"/>
<path d="M193.84 34.66C183.84 30.66 173.84 27.66 163.14 27" stroke="black" stroke-width="3" stroke-miterlimit="10"/>
</g>
<defs>
<clipPath id="clip0_12_51">
<rect width="263.07" height="397.78" transform="matrix(-1 0 0 1 263.07 0)" fill="white"/>
</clipPath>
</defs>
</svg>
